# xmcd CD database file
#
# Track frame offsets:
#	150
#	31408
#	51745
#	84923
#	108976
#	126265
#	167146
#	195513
#
# Disc length: 3017 seconds
#
# Revision: 0
# Processed by: cddbd v1.5.2PL0 Copyright (c) Steve Scherf et al.
# Submitted via: CDex 1.70beta2
#
DISCID=680bc708
DTITLE=Gentle Three - Gentle Three
DYEAR=2008
DGENRE=Jazz
TTITLE0=Soul Eyes
TTITLE1=Triste
TTITLE2=But Beautiful
TTITLE3=Here's That Rainy Day
TTITLE4=What Am I Here For?
TTITLE5=Pannonica
TTITLE6=Come Rain Or Come Shine
TTITLE7=Never Let Me Go
EXTD=YEAR: 2008
EXTT0=
EXTT1=
EXTT2=
EXTT3=
EXTT4=
EXTT5=
EXTT6=
EXTT7=
PLAYORDER=
